HIERARCHY
ROOT Hips
{
	OFFSET 0.000000 0.000000 0.000000 
	CHANNELS 6 Xposition Yposition Zposition Zrotation Yrotation Xrotation
	JOINT LeftUpLeg
	{
		OFFSET 1.363060 -1.794630 0.839290 
		CHANNELS 3 Zrotation Yrotation Xrotation
		JOINT LeftLeg
		{
			OFFSET 2.448110 -6.726130 0.000000 
			CHANNELS 3 Zrotation Yrotation Xrotation
			JOINT LeftFoot
			{
				OFFSET 2.562200 -7.039590 0.000000 
				CHANNELS 3 Zrotation Yrotation Xrotation
				JOINT LeftToeBase
				{
					OFFSET 0.157640 -0.433110 2.322550 
					CHANNELS 3 Zrotation Yrotation Xrotation
					End Site
					{
						OFFSET 0.000000 0.000000 0.000000 
					}
				}
			}
		}
	}
	JOINT RightUpLeg
	{
		OFFSET -1.305520 -1.794630 0.839290 
		CHANNELS 3 Zrotation Yrotation Xrotation
		JOINT RightLeg
		{
			OFFSET -2.542530 -6.985550 0.000000 
			CHANNELS 3 Zrotation Yrotation Xrotation
			JOINT RightFoot
			{
				OFFSET -2.568260 -7.056230 0.000000 
				CHANNELS 3 Zrotation Yrotation Xrotation
				JOINT RightToeBase
				{
					OFFSET -0.164730 -0.452590 2.363150 
					CHANNELS 3 Zrotation Yrotation Xrotation
					End Site
					{
						OFFSET 0.000000 0.000000 0.000000 
					}
				}
			}
		}
	}
	JOINT Spine
	{
		OFFSET 0.028270 2.035590 -0.193380 
		CHANNELS 3 Zrotation Yrotation Xrotation
		JOINT Spine1
		{
			OFFSET 0.056720 2.048850 -0.042750 
			CHANNELS 3 Zrotation Yrotation Xrotation
			JOINT Neck1
			{
				OFFSET -0.054170 1.746240 0.172020 
				CHANNELS 3 Zrotation Yrotation Xrotation
				JOINT Head
				{
					OFFSET 0.104070 1.761360 -0.123970 
					CHANNELS 3 Zrotation Yrotation Xrotation
					End Site
					{
						OFFSET 0.000000 0.000000 0.000000 
					}
				}
			}
			JOINT LeftArm
			{
				OFFSET 3.362410 1.200890 -0.311210 
				CHANNELS 3 Zrotation Yrotation Xrotation
				JOINT LeftForeArm
				{
					OFFSET 4.983000 -0.000000 -0.000000 
					CHANNELS 3 Zrotation Yrotation Xrotation
					JOINT LeftHand
					{
						OFFSET 3.483560 -0.000000 -0.000000 
						CHANNELS 3 Zrotation Yrotation Xrotation
						JOINT LeftHandIndex1
						{
							OFFSET 0.715260 -0.000000 -0.000000 
							CHANNELS 3 Zrotation Yrotation Xrotation
							End Site
							{
								OFFSET 0.000000 0.000000 0.000000 
							}
						}
					}
				}
			}
			JOINT RightArm
			{
				OFFSET -3.136600 1.374050 -0.404650 
				CHANNELS 3 Zrotation Yrotation Xrotation
				JOINT RightForeArm
				{
					OFFSET -5.241900 -0.000000 -0.000000 
					CHANNELS 3 Zrotation Yrotation Xrotation
					JOINT RightHand
					{
						OFFSET -3.444170 -0.000000 -0.000000 
						CHANNELS 3 Zrotation Yrotation Xrotation
						JOINT RightHandIndex1
						{
							OFFSET -0.622530 -0.000000 -0.000000 
							CHANNELS 3 Zrotation Yrotation Xrotation
							End Site
							{
								OFFSET 0.000000 0.000000 0.000000 
							}
						}
					}
				}
			}
		}
	}
}
MOTION
Frames: 7
Frame Time: 0.041667
4.149184 18.020213 25.973318 175.281938 5.102410 -173.366111 -26.562673 -6.930462 -17.664472 2.189160 6.874632 23.001063 0.113827 -0.429820 -5.728612 0.000500 0.139200 0.382400 11.549034 14.922586 -18.812374 -12.883082 -16.892994 66.664605 -0.278107 5.961699 10.655769 -0.237100 -3.134000 8.652000 -2.609103 -1.301247 7.592679 -1.053920 -0.808893 -1.980843 -2.744694 0.736742 11.517541 -0.255400 -0.051000 6.740200 -83.591748 -14.070503 24.433251 16.026959 -16.923213 -2.344752 -0.604042 -0.431847 5.883010 -7.125000 0.000000 0.000000 61.539566 2.511264 49.711654 -62.281760 56.251493 -35.748709 0.387211 -0.741328 8.174544 7.125000 0.000000 0.000000 
4.115184 18.009103 25.853793 175.407665 5.495466 -172.748290 -26.595778 -7.187395 -18.052567 2.251195 7.028789 23.453139 0.119745 -0.237839 -6.268942 0.000300 0.117500 0.322900 10.974886 15.893535 -21.196709 -13.054090 -16.903015 67.276018 -0.215674 5.863117 9.364343 -0.225000 -3.053300 8.427300 -2.507742 -1.107847 7.286494 -1.236352 -0.718697 -1.894325 -2.674954 0.595225 11.318151 -0.261100 -0.110700 6.678700 -83.879619 -15.062181 25.876990 16.208189 -17.173515 -2.367325 -0.607437 -0.864221 6.058968 -7.125000 0.000000 0.000000 61.466434 2.528700 49.671911 -62.294504 56.253794 -35.772119 0.404352 -0.739822 8.037947 7.125000 0.000000 0.000000 
4.119590 18.016669 25.708122 175.445671 4.627066 -173.127046 -26.528316 -7.239713 -16.941801 2.263062 7.064193 23.518575 0.203974 -0.894959 -6.430500 0.016100 0.818500 2.249500 11.150493 15.399268 -21.840991 -13.058039 -16.902177 67.299083 -0.124504 5.890896 7.430345 -0.090100 -1.935600 5.327800 -2.118484 -1.470265 7.658741 -0.994355 -0.896139 -1.886375 -2.639659 0.502141 10.915021 -0.262600 -0.151500 6.559900 -84.149248 -15.996855 27.355108 16.365138 -17.358822 -2.509455 -0.587725 -0.454676 5.571476 -7.125000 0.000000 0.000000 61.259364 2.649788 49.752568 -62.687477 56.353050 -36.097579 0.394102 -0.743133 7.323177 7.125000 0.000000 0.000000 
4.113173 18.021745 25.569825 175.393101 4.321310 -173.058429 -26.602610 -7.284403 -16.465721 2.282444 7.116118 23.645711 0.283831 -1.385059 -6.871877 0.028700 1.093200 3.005200 10.871006 15.600049 -23.169819 -13.097959 -16.895902 67.458255 -0.056256 6.010116 5.659467 -0.026000 -1.041500 2.863000 -1.916736 -1.626458 7.610978 -0.846026 -0.970404 -1.943250 -2.280540 0.471047 10.916837 -0.140000 -0.149500 6.576400 -84.301411 -16.709216 29.009357 16.732800 -17.917822 -2.589412 -0.527958 -1.240918 4.880632 -7.125000 0.000000 0.000000 61.125262 2.709975 49.864631 -63.031215 56.437594 -36.369541 0.389344 -0.748232 6.814512 7.125000 0.000000 0.000000 
4.102542 18.008337 25.440914 175.269620 4.146834 -172.884157 -26.836331 -7.075234 -16.230051 2.286756 7.128287 23.658485 0.337561 -1.785329 -7.022877 0.008700 0.601400 1.652600 10.373351 16.032316 -24.610134 -13.101716 -16.873102 67.516111 -0.038220 5.623312 4.240020 -0.054200 -1.502800 4.133400 -1.750821 -1.675796 7.560549 -0.701233 -0.994725 -1.900890 -1.910039 0.349334 10.969545 -0.016400 -0.190000 6.595300 -84.617350 -17.496520 30.255727 17.008385 -18.277760 -2.759026 -0.522380 -0.765646 4.746141 -7.125000 0.000000 0.000000 60.991184 2.781326 49.869784 -62.884721 56.398943 -36.223169 0.400407 -0.749539 7.111787 7.125000 0.000000 0.000000 
4.092965 17.987171 25.313727 175.101753 3.814042 -172.733078 -27.075679 -7.245081 -15.706966 2.290635 7.134009 23.660511 0.367303 -2.011525 -7.105629 0.002600 0.332000 0.912100 9.847907 16.256949 -26.038552 -13.059986 -16.840199 67.424166 -0.023723 5.279402 2.689028 -0.083600 -1.865100 5.132900 -1.564147 -1.754319 7.527966 -0.526141 -1.032558 -1.859237 -1.811023 0.119404 10.808715 -0.003100 -0.291900 6.523100 -85.058087 -18.274801 31.361770 17.354512 -18.762430 -2.897354 -0.502986 -0.933146 4.895792 -7.125000 0.000000 0.000000 60.796482 2.812739 49.729325 -62.767615 56.404348 -36.268632 0.591537 -0.672245 7.211358 7.125000 0.000000 0.000000 
4.079078 17.976061 25.182997 175.023083 3.126256 -172.662296 -27.175728 -7.586008 -15.118827 2.308979 7.170390 23.757724 0.420407 -2.351250 -7.379608 0.002400 0.317600 0.872800 9.500831 16.039643 -27.480960 -12.968047 -16.779570 67.146359 -0.010567 5.136973 0.905321 -0.049700 -1.438300 3.955800 -1.670784 -1.677059 8.813593 -0.502299 -1.015846 -1.579738 -1.957205 -0.340356 12.057924 -0.236800 -0.529600 7.461300 -85.095563 -20.931898 33.451081 17.557561 -19.052192 -3.020979 -0.471415 -0.888122 4.318174 -7.125000 0.000000 0.000000 60.943738 4.061676 48.249940 -63.432600 56.625928 -36.792386 0.566353 -0.682296 5.584957 7.125000 0.000000 0.000000 
